    <svg
      width="20"
      height="20"
      viewBox="0 0 20 20"
      xmlns="http://www.w3.org/2000/svg"
    >
      <path
        d="M12.5 18.9584H7.49996C2.97496 18.9584 1.04163 17.0251 1.04163 12.5001V7.50008C1.04163 2.97508 2.97496 1.04175 7.49996 1.04175H12.5C17.025 1.04175 18.9583 2.97508 18.9583 7.50008V12.5001C18.9583 17.0251 17.025 18.9584 12.5 18.9584ZM7.49996 2.29175C3.65829 2.29175 2.29163 3.65841 2.29163 7.50008V12.5001C2.29163 16.3417 3.65829 17.7084 7.49996 17.7084H12.5C16.3416 17.7084 17.7083 16.3417 17.7083 12.5001V7.50008C17.7083 3.65841 16.3416 2.29175 12.5 2.29175H7.49996Z"
        fill="#D0D0D0"
      />
      <path
        d="M8.8167 12.9834C8.65003 12.9834 8.4917 12.9167 8.37503 12.8001L6.0167 10.4417C5.77503 10.2001 5.77503 9.80008 6.0167 9.55841C6.25837 9.31675 6.65837 9.31675 6.90003 9.55841L8.8167 11.4751L13.1 7.19175C13.3417 6.95008 13.7417 6.95008 13.9834 7.19175C14.225 7.43341 14.225 7.83341 13.9834 8.07508L9.25837 12.8001C9.1417 12.9167 8.98337 12.9834 8.8167 12.9834Z"
        fill="#D0D0D0"
      />
    </svg>