<svg width="20" height="20" viewBox="0 0 20 20" fill="none" xmlns="http://www.w3.org/2000/svg">
<path d="M13.4916 1.66675H6.50829C3.47496 1.66675 1.66663 3.47508 1.66663 6.50841V13.4834C1.66663 16.5251 3.47496 18.3334 6.50829 18.3334H13.4833C16.5166 18.3334 18.325 16.5251 18.325 13.4917V6.50841C18.3333 3.47508 16.525 1.66675 13.4916 1.66675ZM13.9833 8.08342L9.25829 12.8084C9.14163 12.9251 8.98329 12.9917 8.81663 12.9917C8.64996 12.9917 8.49163 12.9251 8.37496 12.8084L6.01663 10.4501C5.77496 10.2084 5.77496 9.80841 6.01663 9.56675C6.25829 9.32508 6.65829 9.32508 6.89996 9.56675L8.81663 11.4834L13.1 7.20008C13.3416 6.95842 13.7416 6.95842 13.9833 7.20008C14.225 7.44175 14.225 7.83342 13.9833 8.08342Z" fill="#4171FF"/>
</svg>
