<svg width="18" height="19" viewBox="0 0 18 19" fill="none" xmlns="http://www.w3.org/2000/svg">
<path opacity="0.4" d="M12.1425 2H5.8575C3.1275 2 1.5 3.6275 1.5 6.3575V12.635C1.5 15.3725 3.1275 17 5.8575 17H12.135C14.865 17 16.4925 15.3725 16.4925 12.6425V6.3575C16.5 3.6275 14.8725 2 12.1425 2Z" fill="#6284E8"/>
<path d="M7.93502 12.1852C7.78502 12.1852 7.64252 12.1252 7.53752 12.0202L5.41502 9.8977C5.19752 9.6802 5.19752 9.3202 5.41502 9.1027C5.63252 8.8852 5.99252 8.8852 6.21002 9.1027L7.93502 10.8277L11.79 6.9727C12.0075 6.7552 12.3675 6.7552 12.585 6.9727C12.8025 7.1902 12.8025 7.55019 12.585 7.76769L8.33252 12.0202C8.22752 12.1252 8.08502 12.1852 7.93502 12.1852Z" fill="#4171FF"/>
</svg>
