<svg width="13" height="16" viewBox="0 0 13 16" fill="none" xmlns="http://www.w3.org/2000/svg">
<path d="M6.07593 0C4.46508 0.00190755 2.92075 0.645079 1.7817 1.78843C0.642657 2.93177 0.00190683 4.48194 6.46416e-06 6.09888C-0.00192286 7.42024 0.428072 8.70575 1.22403 9.7582C1.22403 9.7582 1.38974 9.97721 1.4168 10.0088L6.07593 15.5244L10.7373 10.006C10.7616 9.97665 10.9278 9.7582 10.9278 9.7582L10.9284 9.75654C11.7239 8.70455 12.1537 7.41963 12.1518 6.09888C12.1499 4.48194 11.5092 2.93177 10.3702 1.78843C9.23111 0.645079 7.68678 0.00190755 6.07593 0ZM6.07593 8.31665C5.63894 8.31665 5.21177 8.18658 4.84844 7.94289C4.4851 7.6992 4.20191 7.35283 4.03468 6.94758C3.86746 6.54234 3.8237 6.09642 3.90896 5.66621C3.99421 5.236 4.20463 4.84084 4.51363 4.53067C4.82262 4.22051 5.2163 4.00929 5.64489 3.92372C6.07348 3.83814 6.51772 3.88206 6.92144 4.04992C7.32516 4.21778 7.67022 4.50204 7.913 4.86675C8.15577 5.23146 8.28535 5.66024 8.28535 6.09888C8.28462 6.68684 8.05161 7.25051 7.63742 7.66627C7.22323 8.08202 6.66168 8.31592 6.07593 8.31665Z" fill="#909090"/>
</svg>
