<svg width="18" height="19" viewBox="0 0 18 19" fill="none" xmlns="http://www.w3.org/2000/svg">
<path opacity="0.4" d="M6.75 2C4.785 2 3.1875 3.5975 3.1875 5.5625C3.1875 7.49 4.695 9.05 6.66 9.1175C6.72 9.11 6.78 9.11 6.825 9.1175C6.84 9.1175 6.8475 9.1175 6.8625 9.1175C6.87 9.1175 6.87 9.1175 6.8775 9.1175C8.7975 9.05 10.305 7.49 10.3125 5.5625C10.3125 3.5975 8.715 2 6.75 2Z" fill="#6284E8"/>
<path d="M10.56 11.1127C8.46747 9.71766 5.05497 9.71766 2.94747 11.1127C1.99497 11.7502 1.46997 12.6127 1.46997 13.5352C1.46997 14.4577 1.99497 15.3127 2.93997 15.9427C3.98997 16.6477 5.36997 17.0002 6.74997 17.0002C8.12997 17.0002 9.50997 16.6477 10.56 15.9427C11.505 15.3052 12.03 14.4502 12.03 13.5202C12.0225 12.5977 11.505 11.7427 10.56 11.1127Z" fill="#4171FF"/>
<path opacity="0.4" d="M14.9925 6.00507C15.1125 7.46008 14.0775 8.73507 12.645 8.90758C12.6375 8.90758 12.6375 8.90758 12.63 8.90758H12.6075C12.5625 8.90758 12.5175 8.90757 12.48 8.92257C11.7525 8.96007 11.085 8.72757 10.5825 8.30008C11.355 7.61007 11.7975 6.57507 11.7075 5.45007C11.655 4.84257 11.445 4.28757 11.13 3.81507C11.415 3.67257 11.745 3.58257 12.0825 3.55257C13.5525 3.42507 14.865 4.52007 14.9925 6.00507Z" fill="#6284E8"/>
<path d="M16.4925 12.9423C16.4325 13.6698 15.9675 14.2998 15.1875 14.7273C14.4375 15.1398 13.4925 15.3348 12.555 15.3123C13.095 14.8248 13.41 14.2173 13.47 13.5723C13.545 12.6423 13.1025 11.7498 12.2175 11.0373C11.715 10.6398 11.13 10.3248 10.4925 10.0923C12.15 9.61231 14.235 9.93481 15.5175 10.9698C16.2075 11.5248 16.56 12.2223 16.4925 12.9423Z" fill="#4171FF"/>
</svg>