<svg width="12" height="12" viewBox="0 0 12 12" fill="none" xmlns="http://www.w3.org/2000/svg">
<path d="M6.86502 1.75482L7.74502 3.51482C7.86502 3.75982 8.18502 3.99482 8.45502 4.03982L10.05 4.30482C11.07 4.47482 11.31 5.21482 10.575 5.94482L9.33502 7.18482C9.12502 7.39482 9.01002 7.79982 9.07502 8.08982L9.43002 9.62482C9.71002 10.8398 9.06502 11.3098 7.99002 10.6748L6.49502 9.78982C6.22502 9.62982 5.78002 9.62982 5.50502 9.78982L4.01002 10.6748C2.94002 11.3098 2.29002 10.8348 2.57002 9.62482L2.92502 8.08982C2.99002 7.79982 2.87502 7.39482 2.66502 7.18482L1.42502 5.94482C0.695016 5.21482 0.930016 4.47482 1.95002 4.30482L3.54502 4.03982C3.81002 3.99482 4.13002 3.75982 4.25002 3.51482L5.13002 1.75482C5.61002 0.799824 6.39002 0.799824 6.86502 1.75482Z" fill="#4171FF"/>
</svg>
