<svg width="79" height="24" viewBox="0 0 79 24" fill="none" xmlns="http://www.w3.org/2000/svg">
<g clip-path="url(#clip0_6906_926)">
<path d="M2.86964 17.1637C2.0168 16.7785 1.34221 16.2497 0.845888 15.5878C0.349562 14.9259 0.0769324 14.1904 0.0314941 13.3849H3.36596C3.42888 13.8893 3.67704 14.3095 4.11045 14.6422C4.54386 14.9749 5.08563 15.1395 5.73225 15.1395C6.37887 15.1395 6.85422 15.0134 7.21074 14.7613C7.56726 14.5091 7.74202 14.1834 7.74202 13.7912C7.74202 13.3639 7.52531 13.0452 7.0919 12.8316C6.65849 12.618 5.96992 12.3868 5.02271 12.1312C4.04404 11.893 3.24363 11.6479 2.62147 11.3957C1.99932 11.1436 1.46105 10.7549 1.01366 10.233C0.562772 9.71123 0.339076 9.0073 0.339076 8.12477C0.339076 7.39983 0.548791 6.73443 0.964726 6.13557C1.38066 5.53671 1.98184 5.06042 2.76128 4.71371C3.54073 4.367 4.45998 4.19189 5.51554 4.19189C7.07792 4.19189 8.32223 4.58413 9.25196 5.3651C10.1817 6.14608 10.6955 7.20021 10.7899 8.52751H7.61968C7.57075 8.0057 7.35404 7.59245 6.96957 7.28426C6.58159 6.97608 6.06779 6.82198 5.42117 6.82198C4.82348 6.82198 4.36211 6.93405 4.03705 7.15468C3.71199 7.37532 3.55121 7.6835 3.55121 8.07924C3.55121 8.52051 3.77141 8.85671 4.21181 9.08785C4.65222 9.31549 5.33728 9.55013 6.27052 9.78828C7.21773 10.0264 7.99717 10.2716 8.61233 10.5237C9.2275 10.7759 9.75878 11.1681 10.2097 11.6969C10.6606 12.2257 10.8912 12.9262 10.9087 13.7947C10.9087 14.5547 10.699 15.2341 10.2831 15.8329C9.86363 16.4318 9.26595 16.9046 8.48651 17.2443C7.70706 17.584 6.7948 17.7556 5.75322 17.7556C4.71164 17.7556 3.71898 17.563 2.86964 17.1742V17.1637Z" fill="black"/>
<path d="M16.0676 7.12687V13.4762C16.0676 13.9175 16.1724 14.2397 16.3856 14.4358C16.5989 14.6319 16.9554 14.7335 17.4622 14.7335H19.0001V17.5282H16.9169C14.1277 17.5282 12.7296 16.1693 12.7296 13.4517V7.12337H11.1672V4.39872H12.7296V1.15576H16.0641V4.40222H18.9966V7.12687H16.0641H16.0676Z" fill="black"/>
<path d="M32.3378 4.4021V17.5315H29.0033V15.8715C28.5769 16.4389 28.0212 16.8871 27.3361 17.2093C26.651 17.5315 25.9066 17.6961 25.1026 17.6961C24.0785 17.6961 23.1698 17.479 22.3833 17.0447C21.5934 16.6105 20.9748 15.9696 20.5274 15.1256C20.0765 14.2816 19.8528 13.273 19.8528 12.1033V4.4021H23.1628V11.6305C23.1628 12.6741 23.4249 13.4761 23.9422 14.0364C24.4595 14.5968 25.1726 14.8769 26.0708 14.8769C26.9691 14.8769 27.7031 14.5968 28.2239 14.0364C28.7447 13.4761 29.0033 12.6741 29.0033 11.6305V4.4021H32.3378Z" fill="black"/>
<path d="M49.5871 4.4021V17.5315H46.2771V4.4021H49.5871Z" fill="black"/>
<path d="M62.0056 5.69453C62.9668 6.68213 63.4491 8.06196 63.4491 9.83053V17.5317H60.1391V10.2788C60.1391 9.23517 59.8805 8.43318 59.3597 7.87285C58.8389 7.31251 58.1294 7.03234 57.2311 7.03234C56.3328 7.03234 55.5953 7.31251 55.0675 7.87285C54.5398 8.43318 54.2741 9.23517 54.2741 10.2788V17.5317H50.9641V4.40225H54.2741V6.03774C54.7145 5.47039 55.2807 5.02212 55.9658 4.69993C56.6509 4.37773 57.4059 4.21313 58.2237 4.21313C59.7861 4.21313 61.0479 4.70693 62.0091 5.69453H62.0056Z" fill="black"/>
<path d="M72.9461 4.76991C73.6871 5.15865 74.2708 5.65945 74.6972 6.27582V4.40219H78.0317V17.6262C78.0317 18.8414 77.787 19.9271 77.2977 20.8831C76.8084 21.8392 76.0744 22.5957 75.0992 23.1595C74.1205 23.7199 72.9391 24 71.5515 24C69.692 24 68.1646 23.5658 66.9762 22.6972C65.7843 21.8287 65.1132 20.645 64.9525 19.1426H68.2415C68.4163 19.7415 68.7902 20.2212 69.3635 20.575C69.9367 20.9287 70.6357 21.1073 71.4571 21.1073C72.4183 21.1073 73.1978 20.8201 73.7989 20.2423C74.3966 19.6644 74.6972 18.7924 74.6972 17.6227V15.5844C74.2708 16.2008 73.6836 16.7156 72.9356 17.1254C72.1876 17.5351 71.3313 17.7417 70.3701 17.7417C69.2656 17.7417 68.259 17.4581 67.3432 16.8872C66.4275 16.3199 65.7074 15.5179 65.1797 14.4813C64.6519 13.4482 64.3862 12.2574 64.3862 10.9161C64.3862 9.57482 64.6484 8.41211 65.1797 7.38599C65.7074 6.35987 66.424 5.56839 67.3327 5.01506C68.238 4.46173 69.2516 4.18506 70.3736 4.18506C71.3523 4.18506 72.2086 4.37767 72.9531 4.76641L72.9461 4.76991ZM74.2219 8.8919C73.9073 8.31405 73.4809 7.87279 72.9461 7.5646C72.4113 7.25641 71.8346 7.10232 71.2194 7.10232C70.6043 7.10232 70.0381 7.25291 69.5173 7.55409C68.9965 7.85528 68.5735 8.29304 68.252 8.87089C67.9269 9.44874 67.7661 10.1317 67.7661 10.9196C67.7661 11.7076 67.9269 12.401 68.252 12.9929C68.5735 13.5847 69 14.04 69.5277 14.3552C70.0555 14.6704 70.6183 14.828 71.2194 14.828C71.8206 14.828 72.4113 14.6739 72.9461 14.3657C73.4809 14.0575 73.9073 13.6163 74.2219 13.0384C74.5364 12.4606 74.6937 11.7706 74.6937 10.9652C74.6937 10.1597 74.5364 9.46975 74.2219 8.8919Z" fill="black"/>
<path d="M47.934 3.28498C48.8393 3.28498 49.5732 2.54962 49.5732 1.64249C49.5732 0.735369 48.8393 0 47.934 0C47.0286 0 46.2947 0.735369 46.2947 1.64249C46.2947 2.54962 47.0286 3.28498 47.934 3.28498Z" fill="#4171FF"/>
<path d="M40.7826 17.5351C39.5837 17.5351 38.4512 16.8977 37.6368 15.7315C36.3016 13.8088 35.8298 10.4573 37.2174 7.44549C36.5393 7.25988 35.7494 7.1373 34.4422 7.1373H33.0825V4.40915H34.4422C36.6861 4.40915 37.8291 4.74886 38.8567 5.10257C39.9926 3.97839 41.5725 2.88223 43.2677 2.05223L44.491 1.45337L45.6864 3.90485L44.4631 4.50371C43.411 5.01852 42.4044 5.65941 41.5795 6.32481C43.7081 7.85874 44.6693 10.5309 44.6378 12.7687C44.6064 15.1536 43.4809 16.9327 41.7018 17.4125C41.3942 17.4966 41.0866 17.5351 40.7861 17.5351H40.7826ZM39.7794 8.40857C38.7658 10.4643 38.979 12.8878 39.8738 14.1731C40.4051 14.9365 40.849 14.8174 40.9958 14.7789C41.6144 14.6143 41.901 13.6337 41.915 12.7337C41.936 11.1472 41.2125 9.31912 39.7794 8.40857Z" fill="#4171FF"/>
</g>
<defs>
<clipPath id="clip0_6906_926">
<rect width="78" height="24" fill="white" transform="translate(0.0314941)"/>
</clipPath>
</defs>
</svg>
