<svg width="29" height="26" viewBox="0 0 29 26" fill="none" xmlns="http://www.w3.org/2000/svg">
<path d="M11.6999 4.60002V3.20002H17.2999V4.60002H20.0999V3.20002C20.0981 1.65435 18.8456 0.401788 17.2999 0.400024H11.6999C10.1542 0.401788 8.90167 1.65435 8.8999 3.20002V4.60002H11.6999Z" fill="#4171FF"/>
<path d="M10.2999 17.2C9.52691 17.2002 8.9001 16.5738 8.8999 15.8008C8.8999 15.8005 8.8999 15.801 8.8999 15.8008V13C8.8999 12.2268 9.5267 11.6 10.2999 11.6C11.0731 11.6 11.6999 12.2268 11.6999 13V15.8C11.7001 16.573 11.0729 17.1998 10.2999 17.2C10.3001 17.2 10.2997 17.2 10.2999 17.2ZM18.6999 17.2C17.9269 17.2002 17.3001 16.5738 17.2999 15.8008C17.2999 15.8005 17.2999 15.801 17.2999 15.8008V13C17.2999 12.2268 17.9267 11.6 18.6999 11.6C19.4731 11.6 20.0999 12.2268 20.0999 13V15.8C20.1001 16.573 19.4729 17.1998 18.6999 17.2C18.7001 17.2 18.6997 17.2 18.6999 17.2Z" fill="#ECF1FF"/>
<path d="M25.7 4.60004H3.3C1.7536 4.60004 0.5 5.85364 0.5 7.40004V11.6C0.5 13.1464 1.7536 14.4 3.3 14.4H8.9V13C8.9 12.2268 9.52679 11.6 10.3 11.6C11.0732 11.6 11.7 12.2268 11.7 13V14.4H17.3V13C17.3 12.2268 17.9268 11.6 18.7 11.6C19.4732 11.6 20.1 12.2268 20.1 13V14.4H25.7C27.2464 14.4 28.5 13.1464 28.5 11.6V7.40004C28.5 5.85364 27.2464 4.60004 25.7 4.60004Z" fill="#A0B8FF"/>
<path d="M25.7 14.4H20.1V15.8C20.1 16.5732 19.4732 17.2 18.7 17.2C17.9268 17.2 17.3 16.5732 17.3 15.8V14.4H11.7V15.8C11.7 16.5732 11.0732 17.2 10.3 17.2C9.52679 17.2 8.9 16.5732 8.9 15.8V14.4H3.3C1.7536 14.4 0.5 13.1464 0.5 11.6V22.8C0.5 24.3464 1.7536 25.6 3.3 25.6H25.7C27.2464 25.6 28.5 24.3464 28.5 22.8V11.6C28.5 13.1464 27.2464 14.4 25.7 14.4Z" fill="#4171FF"/>
</svg>
