<svg width="29" height="20" viewBox="0 0 29 20" fill="none" xmlns="http://www.w3.org/2000/svg">
<g clip-path="url(#clip0_1123_17525)">
<path d="M2.19043 0.5H14.4983V19.5H2.19043C1.25721 19.5 0.5 18.758 0.5 17.8434V2.15656C0.5 1.24203 1.25721 0.5 2.19043 0.5Z" fill="#D9E3FF"/>
<path d="M14.4983 0.5H26.8062C27.7394 0.5 28.4966 1.24204 28.4966 2.15656V17.8402C28.4966 18.7547 27.7394 19.4967 26.8062 19.4967H14.4983V0.5Z" fill="#4171FF"/>
<path d="M25.959 6.5046H17.2279C16.9423 6.5046 16.7131 6.27679 16.7131 6.00015C16.7131 5.72351 16.9456 5.4957 17.2279 5.4957H25.959C26.2446 5.4957 26.4738 5.72351 26.4738 6.00015C26.4738 6.27679 26.2413 6.5046 25.959 6.5046Z" fill="white"/>
<path d="M12.4126 6.5046H3.68151C3.3959 6.5046 3.16675 6.27679 3.16675 6.00015C3.16675 5.72351 3.39922 5.4957 3.68151 5.4957H12.4126C12.6982 5.4957 12.9274 5.72351 12.9274 6.00015C12.9274 6.27679 12.6949 6.5046 12.4126 6.5046Z" fill="white"/>
<path d="M25.959 9.23187H17.2279C16.9423 9.23187 16.7131 9.00405 16.7131 8.72742C16.7131 8.45078 16.9456 8.22296 17.2279 8.22296H25.959C26.2446 8.22296 26.4738 8.45078 26.4738 8.72742C26.4738 9.00405 26.2413 9.23187 25.959 9.23187Z" fill="white"/>
<path d="M12.4126 9.23187H3.68151C3.3959 9.23187 3.16675 9.00405 3.16675 8.72742C3.16675 8.45078 3.39922 8.22296 3.68151 8.22296H12.4126C12.6982 8.22296 12.9274 8.45078 12.9274 8.72742C12.9274 9.00405 12.6949 9.23187 12.4126 9.23187Z" fill="white"/>
<path d="M25.959 11.9625H17.2279C16.9423 11.9625 16.7131 11.7347 16.7131 11.4581C16.7131 11.1814 16.9456 10.9536 17.2279 10.9536H25.959C26.2446 10.9536 26.4738 11.1814 26.4738 11.4581C26.4738 11.7347 26.2413 11.9625 25.959 11.9625Z" fill="white"/>
<path d="M12.4126 11.9625H3.68151C3.3959 11.9625 3.16675 11.7347 3.16675 11.4581C3.16675 11.1814 3.39922 10.9536 3.68151 10.9536H12.4126C12.6982 10.9536 12.9274 11.1814 12.9274 11.4581C12.9274 11.7347 12.6949 11.9625 12.4126 11.9625Z" fill="white"/>
<path d="M25.959 14.6899H17.2279C16.9423 14.6899 16.7131 14.4621 16.7131 14.1855C16.7131 13.9088 16.9456 13.681 17.2279 13.681H25.959C26.2446 13.681 26.4738 13.9088 26.4738 14.1855C26.4738 14.4621 26.2413 14.6899 25.959 14.6899Z" fill="white"/>
<path d="M12.4126 14.6899H3.68151C3.3959 14.6899 3.16675 14.4621 3.16675 14.1855C3.16675 13.9088 3.39922 13.681 3.68151 13.681H12.4126C12.6982 13.681 12.9274 13.9088 12.9274 14.1855C12.9274 14.4621 12.6949 14.6899 12.4126 14.6899Z" fill="white"/>
</g>
<defs>
<clipPath id="clip0_1123_17525">
<rect width="28" height="19" fill="white" transform="translate(0.5 0.5)"/>
</clipPath>
</defs>
</svg>
