<svg width="29" height="28" viewBox="0 0 29 28" fill="none" xmlns="http://www.w3.org/2000/svg">
<g clip-path="url(#clip0_1123_17474)">
<path d="M26.2236 2.50995H2.77612V25.9574H26.2236V2.50995Z" stroke="#D9E3FF" stroke-width="2.8705" stroke-miterlimit="10"/>
<path d="M15.7287 7.32831H8.67032C7.91826 7.32831 7.30859 7.93797 7.30859 8.69003V15.7485C7.30859 16.5005 7.91826 17.1102 8.67032 17.1102H15.7287C16.4808 17.1102 17.0905 16.5005 17.0905 15.7485V8.69003C17.0905 7.93797 16.4808 7.32831 15.7287 7.32831Z" fill="#4171FF"/>
<path d="M21.1274 11.3531H14.069C13.3169 11.3531 12.7073 11.9628 12.7073 12.7148V19.7732C12.7073 20.5253 13.3169 21.135 14.069 21.135H21.1274C21.8795 21.135 22.4891 20.5253 22.4891 19.7732V12.7148C22.4891 11.9628 21.8795 11.3531 21.1274 11.3531Z" fill="#A0B8FF"/>
<path d="M2.77626 4.55252C4.0334 4.55252 5.05252 3.5334 5.05252 2.27626C5.05252 1.01912 4.0334 0 2.77626 0C1.51912 0 0.5 1.01912 0.5 2.27626C0.5 3.5334 1.51912 4.55252 2.77626 4.55252Z" fill="#4171FF"/>
<path d="M2.77626 28C4.0334 28 5.05252 26.9808 5.05252 25.7237C5.05252 24.4666 4.0334 23.4474 2.77626 23.4474C1.51912 23.4474 0.5 24.4666 0.5 25.7237C0.5 26.9808 1.51912 28 2.77626 28Z" fill="#4171FF"/>
<path d="M26.2238 28C27.4809 28 28.5 26.9808 28.5 25.7237C28.5 24.4666 27.4809 23.4474 26.2238 23.4474C24.9666 23.4474 23.9475 24.4666 23.9475 25.7237C23.9475 26.9808 24.9666 28 26.2238 28Z" fill="#4171FF"/>
<path d="M26.2238 4.78213C27.4809 4.78213 28.5 3.76302 28.5 2.50587C28.5 1.24873 27.4809 0.229614 26.2238 0.229614C24.9666 0.229614 23.9475 1.24873 23.9475 2.50587C23.9475 3.76302 24.9666 4.78213 26.2238 4.78213Z" fill="#4171FF"/>
</g>
<defs>
<clipPath id="clip0_1123_17474">
<rect width="28" height="28" fill="white" transform="translate(0.5)"/>
</clipPath>
</defs>
</svg>
