<svg width="26" height="26" viewBox="0 0 26 26" fill="none" xmlns="http://www.w3.org/2000/svg">
<rect width="26" height="26" rx="3" fill="#D9E3FF"/>
<path d="M14.9998 16.9935C14.802 16.9934 14.6087 16.9348 14.4443 16.8249C14.2799 16.715 14.1518 16.5588 14.0761 16.3761C14.0004 16.1934 13.9806 15.9924 14.0192 15.7985C14.0578 15.6045 14.153 15.4263 14.2928 15.2865L21.2928 8.28649C21.4809 8.10178 21.7343 7.99882 21.9979 8.00001C22.2615 8.0012 22.514 8.10645 22.7004 8.29286C22.8868 8.47927 22.9921 8.73175 22.9933 8.99536C22.9945 9.25898 22.8915 9.5124 22.7068 9.70049L15.7068 16.7005C15.6141 16.7935 15.5039 16.8673 15.3825 16.9175C15.2612 16.9678 15.1311 16.9936 14.9998 16.9935ZM3.99979 17.9935C3.80204 17.9934 3.60874 17.9348 3.44433 17.8249C3.27992 17.715 3.15178 17.5588 3.07611 17.3761C3.00044 17.1934 2.98064 16.9924 3.0192 16.7985C3.05777 16.6045 3.15298 16.4263 3.29279 16.2865L9.29279 10.2865C9.48087 10.1018 9.73429 9.99882 9.99791 10C10.2615 10.0012 10.514 10.1065 10.7004 10.2929C10.8868 10.4793 10.9921 10.7317 10.9933 10.9954C10.9945 11.259 10.8915 11.5124 10.7068 11.7005L4.70679 17.7005C4.61406 17.7935 4.50386 17.8673 4.38253 17.9175C4.2612 17.9678 4.13112 17.9936 3.99979 17.9935Z" fill="#4171FF"/>
<path d="M14.9998 16.9935C14.8685 16.9936 14.7384 16.9678 14.6171 16.9175C14.4958 16.8673 14.3856 16.7935 14.2928 16.7005L9.29283 11.7005C9.10812 11.5124 9.00516 11.259 9.00636 10.9954C9.00755 10.7317 9.1128 10.4793 9.29921 10.2929C9.48561 10.1065 9.73809 10.0012 10.0017 10C10.2653 9.99882 10.5187 10.1018 10.7068 10.2865L15.7068 15.2865C15.8466 15.4263 15.9418 15.6045 15.9804 15.7985C16.019 15.9924 15.9992 16.1934 15.9235 16.3761C15.8478 16.5588 15.7197 16.715 15.5553 16.8249C15.3909 16.9348 15.1976 16.9934 14.9998 16.9935Z" fill="#4171FF"/>
</svg>
