<svg width="33" height="20" viewBox="0 0 33 20" fill="none" xmlns="http://www.w3.org/2000/svg">
<g clip-path="url(#clip0_1123_17515)">
<path d="M2.14843 0H17.0095C18.0807 0 18.9521 0.892933 18.9521 1.99062V12.5636C18.9521 13.6613 18.0807 14.5542 17.0095 14.5542H0.205811V1.99062C0.205811 0.892933 1.07722 0 2.14843 0Z" fill="#4171FF"/>
<path d="M32.9999 19.9999L16.4765 19.9999C15.4108 19.9999 14.5432 19.1183 14.5432 18.0292V7.4135C14.5432 6.32719 15.408 5.44279 16.4765 5.44279L31.0694 5.44279C32.1351 5.44279 33.0027 6.32435 33.0027 7.4135V19.9999H32.9999Z" fill="#D9E3FF"/>
<path d="M7.90062 8.55388L7.05612 10.7236C6.96353 10.954 6.78958 11.0564 6.57355 11.0564C6.27615 11.0564 5.96753 10.8801 5.96753 10.5672C5.96753 10.4848 5.98717 10.3995 6.02925 10.2971L8.81807 3.42378C8.97238 3.0484 9.17719 2.86072 9.51667 2.86072C9.88702 2.86072 10.1031 3.0484 10.2574 3.42378L12.9844 10.2886C13.0265 10.371 13.0349 10.445 13.0349 10.5189C13.0349 10.8118 12.7881 11.0507 12.4177 11.0507C12.1905 11.0507 12.0053 10.9568 11.9127 10.718L11.0906 8.55957H7.90062V8.55388ZM10.7624 7.61545L10.1143 5.89498C9.8786 5.28074 9.67098 4.64374 9.51667 4.08921C9.35114 4.63237 9.15755 5.25799 8.91065 5.89498L8.25132 7.61545H10.7624Z" fill="white"/>
<path d="M24.1876 11.0109C24.0193 11.0109 23.8566 10.9256 23.7612 10.772L22.7315 9.10845C22.5828 8.86958 22.6558 8.55392 22.8914 8.40321C23.1271 8.25249 23.4385 8.32643 23.5872 8.5653L24.6169 10.2289C24.7656 10.4678 24.6927 10.7834 24.457 10.9341C24.3728 10.9882 24.2802 11.0138 24.1904 11.0138L24.1876 11.0109Z" fill="#4171FF"/>
<path d="M27.6467 11.065H20.1444C19.8667 11.065 19.6394 10.8375 19.6394 10.5531C19.6394 10.2688 19.8639 10.0413 20.1444 10.0413H27.6467C27.9245 10.0413 28.1517 10.2688 28.1517 10.5531C28.1517 10.8375 27.9273 11.065 27.6467 11.065Z" fill="#4171FF"/>
<path d="M27.3859 17.1221C27.3467 17.1221 27.3074 17.1164 27.2681 17.1079C23.1242 16.1069 21.6596 12.1342 21.6007 11.9664C21.5053 11.7019 21.64 11.409 21.9037 11.3123C22.1646 11.2156 22.4536 11.3521 22.549 11.6166C22.563 11.6536 23.8985 15.2424 27.5038 16.1126C27.7731 16.178 27.9415 16.4538 27.8769 16.7296C27.8208 16.9657 27.616 17.1221 27.3859 17.1221Z" fill="#4171FF"/>
<path d="M20.3972 16.7695C20.1756 16.7695 19.9736 16.6216 19.9119 16.3969C19.8361 16.1239 19.9932 15.8424 20.2626 15.7685C24.7684 14.4916 25.4839 10.5616 25.4923 10.5246C25.54 10.2459 25.7981 10.0611 26.0759 10.1066C26.3508 10.1549 26.5332 10.4194 26.4883 10.6981C26.4574 10.8858 25.6494 15.3049 20.5375 16.7552C20.4926 16.7695 20.4477 16.7751 20.4028 16.7751L20.3972 16.7695Z" fill="#4171FF"/>
</g>
<defs>
<clipPath id="clip0_1123_17515">
<rect width="33" height="20" fill="white"/>
</clipPath>
</defs>
</svg>
