<svg width="27" height="28" viewBox="0 0 27 28" fill="none" xmlns="http://www.w3.org/2000/svg">
<path d="M23.4317 4.93155L19.5595 1.85131C19.0733 1.46454 18.3582 1.53598 17.9622 2.01087L4.67575 17.9454C4.27978 18.4203 4.35292 19.1188 4.83912 19.5056L8.71126 22.5858C9.19746 22.9726 9.91261 22.9012 10.3086 22.4263L23.5951 6.49173C23.991 6.01683 23.9179 5.31832 23.4317 4.93155Z" fill="#A0B8FF"/>
<path d="M20.062 0.766963L24.4156 4.23019C24.7698 4.51195 24.8227 5.01779 24.5343 5.36375L22.5346 7.762L16.9017 3.28114L18.9014 0.8829C19.1899 0.536935 19.7078 0.4852 20.062 0.766963Z" fill="#4171FF"/>
<path d="M4.52967 24.7893L9.94351 22.7769C10.2289 22.6704 10.2915 22.3023 10.0529 22.1131L5.08228 18.1596C4.84365 17.9705 4.48797 18.104 4.43701 18.3982L3.51378 23.9804C3.42187 24.5401 3.98703 24.9888 4.52967 24.7893Z" fill="#D9E3FF"/>
<path d="M3.94325 24.9926L6.0309 24.2175L3.78979 22.4341L3.43392 24.5854C3.38725 24.8673 3.67055 25.0896 3.94468 24.9885L3.94325 24.9926Z" fill="#4171FF"/>
<path d="M25.4345 28H1.56516C1.19705 28 0.899902 27.7098 0.899902 27.3502C0.899902 26.9907 1.19705 26.7004 1.56516 26.7004H25.4345C25.8026 26.7004 26.0998 26.9907 26.0998 27.3502C26.0998 27.7098 25.8026 28 25.4345 28Z" fill="#A0B8FF"/>
</svg>
