<svg width="31" height="30" viewBox="0 0 31 30" fill="none" xmlns="http://www.w3.org/2000/svg">
<path d="M15.5 30C23.7843 30 30.5 23.2843 30.5 15C30.5 6.71573 23.7843 0 15.5 0C7.21573 0 0.5 6.71573 0.5 15C0.5 23.2843 7.21573 30 15.5 30Z" fill="#D9E3FF"/>
<path d="M5.1984 18.1549C6.6094 18.1549 7.75324 17.2428 7.75324 16.1178C7.75324 14.9927 6.6094 14.0807 5.1984 14.0807C3.7874 14.0807 2.64355 14.9927 2.64355 16.1178C2.64355 17.2428 3.7874 18.1549 5.1984 18.1549Z" fill="#A0B8FF"/>
<path d="M25.8017 18.1549C27.2127 18.1549 28.3565 17.2428 28.3565 16.1178C28.3565 14.9927 27.2127 14.0807 25.8017 14.0807C24.3907 14.0807 23.2468 14.9927 23.2468 16.1178C23.2468 17.2428 24.3907 18.1549 25.8017 18.1549Z" fill="#A0B8FF"/>
<path d="M15.5001 23.4629C11.842 23.4629 8.86621 21.2371 8.86621 18.4984C8.86621 18.0968 9.1904 17.7726 9.59202 17.7726C9.99363 17.7726 10.3178 18.0968 10.3178 18.4984C10.3178 20.4339 12.6404 22.0113 15.5001 22.0113C18.3598 22.0113 20.6823 20.4339 20.6823 18.4984C20.6823 18.0968 21.0065 17.7726 21.4082 17.7726C21.8098 17.7726 22.134 18.0968 22.134 18.4984C22.134 21.2371 19.1581 23.4629 15.5001 23.4629Z" fill="#4171FF"/>
<path d="M9.38398 7.64515L10.3904 9.68708C10.4679 9.84192 10.6178 9.95321 10.7872 9.97741L13.0372 10.3064C13.4727 10.3693 13.642 10.9016 13.3324 11.2064L11.7017 12.7935C11.5759 12.9145 11.5179 13.0887 11.5517 13.2629L11.934 15.5032C12.0066 15.9339 11.5566 16.2629 11.1646 16.0597L9.15173 15C8.99689 14.9177 8.81301 14.9177 8.65818 15L6.64527 16.0597C6.25817 16.2629 5.80334 15.9339 5.87592 15.5032L6.25817 13.2629C6.2872 13.0935 6.22914 12.9145 6.10817 12.7935L4.47753 11.2064C4.16301 10.9016 4.33721 10.3693 4.77269 10.3064L7.02269 9.97741C7.19688 9.95321 7.34205 9.84192 7.41947 9.68708L8.42592 7.64515C8.61947 7.25321 9.18075 7.25321 9.3743 7.64515H9.38398Z" fill="#4171FF"/>
<path d="M22.5644 7.64515L23.5708 9.68708C23.6483 9.84192 23.7983 9.95321 23.9676 9.97741L26.2176 10.3064C26.6531 10.3693 26.8225 10.9016 26.5128 11.2064L24.8821 12.7935C24.7563 12.9145 24.6983 13.0887 24.7321 13.2629L25.1144 15.5032C25.187 15.9339 24.737 16.2629 24.345 16.0597L22.3321 15C22.1773 14.9177 21.9934 14.9177 21.8386 15L19.8257 16.0597C19.4386 16.2629 18.9838 15.9339 19.0563 15.5032L19.4386 13.2629C19.4676 13.0935 19.4096 12.9145 19.2886 12.7935L17.658 11.2064C17.3434 10.9016 17.5176 10.3693 17.9531 10.3064L20.2031 9.97741C20.3773 9.95321 20.5225 9.84192 20.5999 9.68708L21.6063 7.64515C21.7999 7.25321 22.3612 7.25321 22.5547 7.64515H22.5644Z" fill="#4171FF"/>
</svg>
