<svg width="31" height="30" viewBox="0 0 31 30" fill="none" xmlns="http://www.w3.org/2000/svg">
<path d="M15.5 30C23.7843 30 30.5 23.2843 30.5 15C30.5 6.71573 23.7843 0 15.5 0C7.21573 0 0.5 6.71573 0.5 15C0.5 23.2843 7.21573 30 15.5 30Z" fill="#D9E3FF"/>
<path d="M10.9128 17.6903V18.9871C10.9128 19.4177 11.3145 19.7661 11.8128 19.7661H19.2693C19.7628 19.7661 20.1693 19.4177 20.1693 18.9871V18.0968" fill="#A0B8FF"/>
<path d="M15.5 24.2662C11.45 24.2662 8.15967 21.3146 8.15967 17.6904C8.15967 17.2888 8.48386 16.9646 8.88547 16.9646H22.1193C22.521 16.9646 22.8452 17.2888 22.8452 17.6904C22.8452 21.3146 19.55 24.2662 15.5048 24.2662H15.5ZM9.66935 18.4162C10.0758 20.8985 12.5339 22.8146 15.5 22.8146C18.4661 22.8146 20.9242 20.8985 21.3306 18.4162H9.66935Z" fill="#4171FF"/>
<path d="M5.93399 18.0339C7.34499 18.0339 8.48883 17.1219 8.48883 15.9968C8.48883 14.8718 7.34499 13.9597 5.93399 13.9597C4.52299 13.9597 3.37915 14.8718 3.37915 15.9968C3.37915 17.1219 4.52299 18.0339 5.93399 18.0339Z" fill="#A0B8FF"/>
<path d="M25.0663 17.6903C26.4773 17.6903 27.6212 16.7782 27.6212 15.6532C27.6212 14.5281 26.4773 13.6161 25.0663 13.6161C23.6553 13.6161 22.5115 14.5281 22.5115 15.6532C22.5115 16.7782 23.6553 17.6903 25.0663 17.6903Z" fill="#A0B8FF"/>
<path d="M12.0066 12.5032C11.8324 12.5032 11.6533 12.4403 11.5179 12.3145L8.00011 9.09196C7.70495 8.82099 7.68559 8.36131 7.95656 8.06615C8.22753 7.77099 8.68721 7.75163 8.98237 8.0226L12.5001 11.2452C12.7953 11.5161 12.8146 11.9758 12.5437 12.271C12.3985 12.4258 12.2049 12.5081 12.0066 12.5081V12.5032Z" fill="#4171FF"/>
<path d="M8.48877 15.7259C8.29039 15.7259 8.09684 15.6484 7.95168 15.4888C7.68071 15.1936 7.70006 14.7339 7.99523 14.463L11.513 11.2404C11.8081 10.9694 12.2678 10.9888 12.5388 11.2839C12.8097 11.5791 12.7904 12.0388 12.4952 12.3097L8.97748 15.5323C8.83716 15.6581 8.66297 15.721 8.48877 15.721V15.7259Z" fill="#4171FF"/>
<path d="M18.9934 12.5032C18.795 12.5032 18.6015 12.4258 18.4563 12.2661C18.1853 11.9709 18.2047 11.5113 18.4999 11.2403L22.0176 8.01772C22.3128 7.74675 22.7724 7.76611 23.0434 8.06127C23.3144 8.35643 23.295 8.8161 22.9999 9.08707L19.4821 12.3097C19.3418 12.4355 19.1676 12.4984 18.9934 12.4984V12.5032Z" fill="#4171FF"/>
<path d="M22.5114 15.7258C22.3373 15.7258 22.1582 15.6629 22.0227 15.5371L18.505 12.3145C18.2098 12.0435 18.1905 11.5838 18.4614 11.2887C18.7324 10.9935 19.1921 10.9742 19.4873 11.2451L23.005 14.4677C23.3002 14.7387 23.3195 15.1984 23.0485 15.4935C22.9034 15.6484 22.7098 15.7306 22.5114 15.7306V15.7258Z" fill="#4171FF"/>
</svg>
