<svg width="30" height="30" viewBox="0 0 30 30" fill="none" xmlns="http://www.w3.org/2000/svg">
<path d="M15 30C23.2843 30 30 23.2843 30 15C30 6.71573 23.2843 0 15 0C6.71573 0 0 6.71573 0 15C0 23.2843 6.71573 30 15 30Z" fill="#D9E3FF"/>
<path d="M15.0001 23.4629C11.342 23.4629 8.36621 21.2371 8.36621 18.4984C8.36621 18.0968 8.6904 17.7726 9.09202 17.7726C9.49363 17.7726 9.81782 18.0968 9.81782 18.4984C9.81782 20.4339 12.1404 22.0113 15.0001 22.0113C17.8598 22.0113 20.1823 20.4339 20.1823 18.4984C20.1823 18.0968 20.5065 17.7726 20.9081 17.7726C21.3098 17.7726 21.6339 18.0968 21.6339 18.4984C21.6339 21.2371 18.6581 23.4629 15.0001 23.4629Z" fill="#4171FF"/>
<path d="M27.9583 9.91454L15.6873 10.4226H14.3083L2.03731 9.91454C1.81473 9.90486 1.61634 10.0936 1.62118 10.3355C1.70828 13.7033 4.43731 16.471 7.90666 16.6162C10.9938 16.742 13.6647 14.7436 14.4728 11.942H15.5276C16.3357 14.7436 19.0067 16.742 22.0938 16.6162C25.5631 16.471 28.2873 13.7033 28.3792 10.3355C28.3841 10.0984 28.1905 9.90486 27.9631 9.91454H27.9583Z" fill="#1D49C7"/>
</svg>
