<svg width="31" height="30" viewBox="0 0 31 30" fill="none" xmlns="http://www.w3.org/2000/svg">
<path d="M15.5 30C23.7843 30 30.5 23.2843 30.5 15C30.5 6.71573 23.7843 0 15.5 0C7.21573 0 0.5 6.71573 0.5 15C0.5 23.2843 7.21573 30 15.5 30Z" fill="#D9E3FF"/>
<path d="M5.19815 19.0742C6.60915 19.0742 7.75299 18.1622 7.75299 17.0371C7.75299 15.912 6.60915 15 5.19815 15C3.78715 15 2.64331 15.912 2.64331 17.0371C2.64331 18.1622 3.78715 19.0742 5.19815 19.0742Z" fill="#A0B8FF"/>
<path d="M25.8014 19.0742C27.2124 19.0742 28.3563 18.1622 28.3563 17.0371C28.3563 15.912 27.2124 15 25.8014 15C24.3904 15 23.2466 15.912 23.2466 17.0371C23.2466 18.1622 24.3904 19.0742 25.8014 19.0742Z" fill="#A0B8FF"/>
<path d="M15.5001 23.4629C11.842 23.4629 8.86621 21.2371 8.86621 18.4984C8.86621 18.0968 9.1904 17.7726 9.59202 17.7726C9.99363 17.7726 10.3178 18.0968 10.3178 18.4984C10.3178 20.4339 12.6404 22.0113 15.5001 22.0113C18.3598 22.0113 20.6823 20.4339 20.6823 18.4984C20.6823 18.0968 21.0065 17.7726 21.4081 17.7726C21.8098 17.7726 22.134 18.0968 22.134 18.4984C22.134 21.2371 19.1581 23.4629 15.5001 23.4629Z" fill="#4171FF"/>
<path d="M12.0355 13.8289C11.6339 13.8289 11.3097 13.5047 11.3097 13.1031C11.3097 11.6854 10.3516 10.5338 9.17582 10.5338C8.00001 10.5338 7.04194 11.6854 7.04194 13.1031C7.04194 13.5047 6.71775 13.8289 6.31614 13.8289C5.91453 13.8289 5.59033 13.5047 5.59033 13.1031C5.59033 10.887 7.19678 9.08215 9.17582 9.08215C11.1548 9.08215 12.7613 10.887 12.7613 13.1031C12.7613 13.5047 12.4371 13.8289 12.0355 13.8289Z" fill="#4171FF"/>
<path d="M24.6837 13.8289C24.2821 13.8289 23.9579 13.5047 23.9579 13.1031C23.9579 11.6854 22.9998 10.5338 21.824 10.5338C20.6482 10.5338 19.6901 11.6854 19.6901 13.1031C19.6901 13.5047 19.3659 13.8289 18.9643 13.8289C18.5627 13.8289 18.2385 13.5047 18.2385 13.1031C18.2385 10.887 19.845 9.08215 21.824 9.08215C23.803 9.08215 25.4095 10.887 25.4095 13.1031C25.4095 13.5047 25.0853 13.8289 24.6837 13.8289Z" fill="#4171FF"/>
</svg>
