<svg width="31" height="30" viewBox="0 0 31 30" fill="none" xmlns="http://www.w3.org/2000/svg">
<path d="M15.5 30C23.7843 30 30.5 23.2843 30.5 15C30.5 6.71573 23.7843 0 15.5 0C7.21573 0 0.5 6.71573 0.5 15C0.5 23.2843 7.21573 30 15.5 30Z" fill="#D9E3FF"/>
<path d="M5.19839 19.0693C6.60939 19.0693 7.75323 18.1573 7.75323 17.0322C7.75323 15.9072 6.60939 14.9951 5.19839 14.9951C3.78739 14.9951 2.64355 15.9072 2.64355 17.0322C2.64355 18.1573 3.78739 19.0693 5.19839 19.0693Z" fill="#A0B8FF"/>
<path d="M25.8063 19.0693C27.2173 19.0693 28.3611 18.1573 28.3611 17.0322C28.3611 15.9072 27.2173 14.9951 25.8063 14.9951C24.3953 14.9951 23.2515 15.9072 23.2515 17.0322C23.2515 18.1573 24.3953 19.0693 25.8063 19.0693Z" fill="#A0B8FF"/>
<path d="M15.5001 23.458C11.842 23.458 8.86621 21.2322 8.86621 18.4935C8.86621 18.0919 9.1904 17.7677 9.59202 17.7677C9.99363 17.7677 10.3178 18.0919 10.3178 18.4935C10.3178 20.429 12.6404 22.0064 15.5001 22.0064C18.3598 22.0064 20.6823 20.4338 20.6823 18.4935C20.6823 18.0919 21.0065 17.7677 21.4081 17.7677C21.8098 17.7677 22.134 18.0919 22.134 18.4935C22.134 21.2322 19.1581 23.458 15.5001 23.458Z" fill="#4171FF"/>
<path d="M21.1229 14.1968C21.9914 14.1968 22.6955 13.4927 22.6955 12.6242C22.6955 11.7557 21.9914 11.0516 21.1229 11.0516C20.2544 11.0516 19.5503 11.7557 19.5503 12.6242C19.5503 13.4927 20.2544 14.1968 21.1229 14.1968Z" fill="#4171FF"/>
<path d="M9.88215 14.1968C10.7507 14.1968 11.4547 13.4927 11.4547 12.6242C11.4547 11.7557 10.7507 11.0516 9.88215 11.0516C9.01364 11.0516 8.30957 11.7557 8.30957 12.6242C8.30957 13.4927 9.01364 14.1968 9.88215 14.1968Z" fill="#4171FF"/>
</svg>
