<svg width="31" height="34" viewBox="0 0 31 34" fill="none" xmlns="http://www.w3.org/2000/svg">
<path d="M15.0136 33.7314C23.0292 33.7314 29.5272 27.2334 29.5272 19.2178C29.5272 11.2022 23.0292 4.70422 15.0136 4.70422C6.99795 4.70422 0.5 11.2022 0.5 19.2178C0.5 27.2334 6.99795 33.7314 15.0136 33.7314Z" fill="#D9E3FF"/>
<path d="M5.04621 23.16C6.41145 23.16 7.5182 22.2775 7.5182 21.1889C7.5182 20.1004 6.41145 19.2179 5.04621 19.2179C3.68097 19.2179 2.57422 20.1004 2.57422 21.1889C2.57422 22.2775 3.68097 23.16 5.04621 23.16Z" fill="#A0B8FF"/>
<path d="M24.9813 23.16C26.3465 23.16 27.4533 22.2775 27.4533 21.1889C27.4533 20.1004 26.3465 19.2179 24.9813 19.2179C23.616 19.2179 22.5093 20.1004 22.5093 21.1889C22.5093 22.2775 23.616 23.16 24.9813 23.16Z" fill="#A0B8FF"/>
<path d="M15.0137 27.4063C11.4743 27.4063 8.59497 25.2527 8.59497 22.6028C8.59497 22.2142 8.90865 21.9005 9.29724 21.9005C9.68583 21.9005 9.99951 22.2142 9.99951 22.6028C9.99951 24.4755 12.2468 26.0018 15.0137 26.0018C17.7807 26.0018 20.0279 24.4755 20.0279 22.6028C20.0279 22.2142 20.3416 21.9005 20.7302 21.9005C21.1188 21.9005 21.4325 22.2142 21.4325 22.6028C21.4325 25.2527 18.5532 27.4063 15.0137 27.4063Z" fill="#4171FF"/>
<path d="M20.4491 18.4406C21.2894 18.4406 21.9707 17.7594 21.9707 16.919C21.9707 16.0787 21.2894 15.3975 20.4491 15.3975C19.6087 15.3975 18.9275 16.0787 18.9275 16.919C18.9275 17.7594 19.6087 18.4406 20.4491 18.4406Z" fill="#4171FF"/>
<path d="M9.57798 18.4406C10.4183 18.4406 11.0996 17.7594 11.0996 16.919C11.0996 16.0787 10.4183 15.3975 9.57798 15.3975C8.73763 15.3975 8.0564 16.0787 8.0564 16.919C8.0564 17.7594 8.73763 18.4406 9.57798 18.4406Z" fill="#4171FF"/>
<path d="M14.5997 4.44381L26.8979 8.22252C26.8979 8.22252 26.9281 8.25142 26.9226 8.26932L25.7772 11.9973C25.6273 12.4851 25.1125 12.7579 24.6247 12.608L14.0092 9.34632C13.5214 9.19644 13.2486 8.6816 13.3985 8.19379L14.5439 4.46586C14.5439 4.46586 14.5728 4.43556 14.5907 4.44106L14.5997 4.44381Z" fill="#A0B8FF"/>
<path d="M18.3706 13.1877L13.7309 9.20346C13.464 8.97405 13.5904 8.53864 13.9416 8.48714L20.0654 7.61633C20.2433 7.59292 20.4259 7.64442 20.5616 7.77083L25.412 12.1764C25.5665 12.3169 25.4822 12.5744 25.2762 12.5978L18.8387 13.3281C18.6702 13.3468 18.5016 13.2954 18.3706 13.183V13.1877Z" fill="#A0B8FF"/>
<path d="M18.9932 9.20351L11.0809 2.41022C10.8375 2.20422 10.9545 1.80627 11.2682 1.76413L21.7039 0.280002C22.0223 0.233184 22.3406 0.331502 22.5794 0.546865L30.3793 7.63511C30.6134 7.85047 30.487 8.23906 30.1733 8.27652L19.8125 9.45633C19.5175 9.4891 19.2179 9.40015 18.9932 9.20351Z" fill="#4171FF"/>
</svg>
