<svg width="30" height="28" viewBox="0 0 30 28" fill="none" xmlns="http://www.w3.org/2000/svg">
<path d="M13.2691 26.9734C20.5974 26.9734 26.5382 21.0326 26.5382 13.7043C26.5382 6.37596 20.5974 0.435181 13.2691 0.435181C5.94078 0.435181 0 6.37596 0 13.7043C0 21.0326 5.94078 26.9734 13.2691 26.9734Z" fill="#D9E3FF"/>
<path d="M13.269 20.7583C10.0331 20.7583 7.40063 18.7893 7.40063 16.3667C7.40063 16.0114 7.68742 15.7246 8.04269 15.7246C8.39796 15.7246 8.68474 16.0114 8.68474 16.3667C8.68474 18.0788 10.7393 19.4742 13.269 19.4742C15.7987 19.4742 17.8533 18.0788 17.8533 16.3667C17.8533 16.0114 18.1401 15.7246 18.4953 15.7246C18.8506 15.7246 19.1374 16.0114 19.1374 16.3667C19.1374 18.7893 16.505 20.7583 13.269 20.7583Z" fill="#4171FF"/>
<path d="M18.2385 12.9938C19.0068 12.9938 19.6296 12.371 19.6296 11.6027C19.6296 10.8344 19.0068 10.2115 18.2385 10.2115C17.4702 10.2115 16.8474 10.8344 16.8474 11.6027C16.8474 12.371 17.4702 12.9938 18.2385 12.9938Z" fill="#4171FF"/>
<path d="M8.29956 12.9938C9.06786 12.9938 9.69068 12.371 9.69068 11.6027C9.69068 10.8344 9.06786 10.2115 8.29956 10.2115C7.53127 10.2115 6.90845 10.8344 6.90845 11.6027C6.90845 12.371 7.53127 12.9938 8.29956 12.9938Z" fill="#4171FF"/>
<path d="M28.9431 9.93991L25.7366 8.57684C25.3319 8.40483 24.8645 8.59342 24.6924 8.99807L18.9421 22.5253C18.7701 22.93 18.9587 23.3975 19.3633 23.5695L22.5699 24.9326C22.9745 25.1046 23.442 24.916 23.614 24.5113L29.3643 10.9841C29.5364 10.5794 29.3478 10.1119 28.9431 9.93991Z" fill="#A0B8FF"/>
<path d="M25.856 7.73294L29.4682 9.26848C29.7597 9.39239 29.8996 9.73089 29.774 10.0263L28.9082 12.0629L24.2363 10.0769L25.1021 8.04034C25.226 7.74884 25.5645 7.60902 25.8599 7.73461L25.856 7.73294Z" fill="#4171FF"/>
<path d="M20.2116 27.2559L23.4433 24.8204C23.6145 24.6919 23.5802 24.4266 23.3833 24.341L19.2614 22.5903C19.0645 22.5047 18.8504 22.6673 18.8761 22.8813L19.3684 26.8963C19.4197 27.2987 19.8863 27.4999 20.2116 27.2559Z" fill="#D9E3FF"/>
<path d="M19.8565 27.5084L21.1021 26.571L19.2444 25.7834L19.4327 27.3329C19.4584 27.5341 19.6938 27.6326 19.8565 27.5127V27.5084Z" fill="#4171FF"/>
<path d="M10.2214 8.80754H6.37765C6.02238 8.80754 5.7356 8.52076 5.7356 8.16549C5.7356 7.81022 6.02238 7.52344 6.37765 7.52344H10.2214C10.5767 7.52344 10.8635 7.81022 10.8635 8.16549C10.8635 8.52076 10.5767 8.80754 10.2214 8.80754Z" fill="#A0B8FF"/>
<path d="M20.1604 8.80754H16.3166C15.9613 8.80754 15.6746 8.52076 15.6746 8.16549C15.6746 7.81022 15.9613 7.52344 16.3166 7.52344H20.1604C20.5157 7.52344 20.8024 7.81022 20.8024 8.16549C20.8024 8.52076 20.5157 8.80754 20.1604 8.80754Z" fill="#A0B8FF"/>
</svg>
