<svg width="31" height="30" viewBox="0 0 31 30" fill="none" xmlns="http://www.w3.org/2000/svg">
<path d="M15.5 30C23.7843 30 30.5 23.2843 30.5 15C30.5 6.71573 23.7843 0 15.5 0C7.21573 0 0.5 6.71573 0.5 15C0.5 23.2843 7.21573 30 15.5 30Z" fill="#D9E3FF"/>
<path d="M5.19815 19.0693C6.60915 19.0693 7.753 18.1573 7.753 17.0322C7.753 15.9072 6.60915 14.9951 5.19815 14.9951C3.78715 14.9951 2.64331 15.9072 2.64331 17.0322C2.64331 18.1573 3.78715 19.0693 5.19815 19.0693Z" fill="#A0B8FF"/>
<path d="M25.8014 19.0693C27.2124 19.0693 28.3563 18.1573 28.3563 17.0322C28.3563 15.9072 27.2124 14.9951 25.8014 14.9951C24.3904 14.9951 23.2466 15.9072 23.2466 17.0322C23.2466 18.1573 24.3904 19.0693 25.8014 19.0693Z" fill="#A0B8FF"/>
<path d="M21.1177 14.1919C21.9863 14.1919 22.6903 13.4878 22.6903 12.6193C22.6903 11.7508 21.9863 11.0468 21.1177 11.0468C20.2492 11.0468 19.5452 11.7508 19.5452 12.6193C19.5452 13.4878 20.2492 14.1919 21.1177 14.1919Z" fill="#4171FF"/>
<path d="M9.8824 14.1919C10.7509 14.1919 11.455 13.4878 11.455 12.6193C11.455 11.7508 10.7509 11.0468 9.8824 11.0468C9.01388 11.0468 8.30981 11.7508 8.30981 12.6193C8.30981 13.4878 9.01388 14.1919 9.8824 14.1919Z" fill="#4171FF"/>
<path d="M18.6354 19.4516H12.3645C11.9629 19.4516 11.6387 19.1274 11.6387 18.7258C11.6387 18.3242 11.9629 18 12.3645 18H18.6354C19.0371 18 19.3613 18.3242 19.3613 18.7258C19.3613 19.1274 19.0371 19.4516 18.6354 19.4516Z" fill="#4171FF"/>
<path d="M12.6403 11.1774C12.3403 11.1774 12.0645 10.9935 11.958 10.6935C11.9241 10.6016 11.2322 8.92741 8.07738 9.13548C7.67577 9.16451 7.33222 8.85967 7.30318 8.4629C7.27415 8.06128 7.57899 7.71773 7.97576 7.6887C12.3161 7.3887 13.2838 10.0984 13.3225 10.2145C13.4532 10.5919 13.25 11.0081 12.8677 11.1339C12.7903 11.1581 12.7129 11.1726 12.6354 11.1726L12.6403 11.1774Z" fill="#4171FF"/>
<path d="M18.3548 11.1678C18.2725 11.1678 18.1903 11.1533 18.1128 11.1242C17.7403 10.9888 17.5419 10.5871 17.6677 10.2146C17.7064 10.0984 18.6741 7.39359 23.0145 7.68876C23.4161 7.71779 23.7161 8.06134 23.687 8.46295C23.658 8.86456 23.3144 9.16456 22.9128 9.13553C19.7435 8.92263 19.0612 10.621 19.0322 10.6936C18.9209 10.9839 18.6451 11.1678 18.3499 11.1678H18.3548Z" fill="#4171FF"/>
</svg>
