<svg width="31" height="30" viewBox="0 0 31 30" fill="none" xmlns="http://www.w3.org/2000/svg">
<path d="M15.3847 29.8847C23.6053 29.8847 30.2695 23.2206 30.2695 15C30.2695 6.77936 23.6053 0.115234 15.3847 0.115234C7.16412 0.115234 0.5 6.77936 0.5 15C0.5 23.2206 7.16412 29.8847 15.3847 29.8847Z" fill="#D9E3FF"/>
<path d="M20.8199 15C21.6049 15 22.2412 14.3637 22.2412 13.5787C22.2412 12.7938 21.6049 12.1575 20.8199 12.1575C20.035 12.1575 19.3987 12.7938 19.3987 13.5787C19.3987 14.3637 20.035 15 20.8199 15Z" fill="#4171FF"/>
<path d="M9.94934 15C10.7343 15 11.3706 14.3637 11.3706 13.5787C11.3706 12.7938 10.7343 12.1575 9.94934 12.1575C9.1644 12.1575 8.52808 12.7938 8.52808 13.5787C8.52808 14.3637 9.1644 15 9.94934 15Z" fill="#4171FF"/>
<path d="M12.1052 11.3844C11.8699 11.3844 11.6395 11.2691 11.505 11.0579C11.4474 10.9762 10.3863 9.52137 7.39973 10.4673C7.02041 10.5873 6.61708 10.376 6.49704 9.99672C6.377 9.6174 6.58826 9.21407 6.96758 9.09403C11.0777 7.79282 12.6526 10.1744 12.7198 10.2752C12.9359 10.6113 12.8351 11.0579 12.4989 11.2691C12.3789 11.3459 12.2445 11.3844 12.11 11.3844H12.1052Z" fill="#4171FF"/>
<path d="M19.0144 9.2765C18.8896 9.2765 18.7648 9.24289 18.6495 9.17567C18.3134 8.97401 18.1982 8.54187 18.395 8.20096C18.4575 8.09533 19.9267 5.65135 24.0896 6.77491C24.4738 6.88054 24.6994 7.27426 24.5986 7.65839C24.493 8.04251 24.0992 8.26818 23.7151 8.16735C20.671 7.34629 19.677 8.86837 19.6386 8.93559C19.4994 9.15646 19.2641 9.2765 19.0192 9.2765H19.0144Z" fill="#4171FF"/>
<path d="M14.8564 23.1962C14.4195 23.1962 13.9681 23.153 13.512 23.057C12.2156 22.7881 11.068 22.1687 10.2758 21.3092C9.4211 20.3825 9.0754 19.2926 9.29147 18.2314C9.37309 17.8425 9.75241 17.5928 10.1413 17.6696C10.5303 17.7513 10.7799 18.1306 10.7031 18.5195C10.5831 19.1101 10.8039 19.7535 11.3369 20.3297C11.9275 20.9683 12.8062 21.4388 13.8049 21.6453C15.7543 22.0486 17.6269 21.2996 17.891 20.008C17.9726 19.6191 18.3567 19.3694 18.7409 19.4462C19.1298 19.5278 19.3795 19.9072 19.3026 20.2961C18.9425 22.039 17.0699 23.1914 14.8564 23.1914V23.1962Z" fill="#4171FF"/>
<path d="M29.7799 28.4298C29.3813 28.4298 29.0596 28.1081 29.0596 27.7096V15.6578C29.0596 15.0624 28.5747 14.5774 27.9793 14.5774H26.1355C25.737 14.5774 25.4153 14.2557 25.4153 13.8572C25.4153 13.4587 25.737 13.137 26.1355 13.137H27.9793C29.3717 13.137 30.5001 14.2701 30.5001 15.6578V27.7096C30.5001 28.1081 30.1784 28.4298 29.7799 28.4298Z" fill="#A0B8FF"/>
<path d="M21.2955 19.4173C18.2274 19.4173 15.7354 16.9205 15.7354 13.8572C15.7354 10.7938 18.2274 8.297 21.2955 8.297C24.3637 8.297 26.8557 10.789 26.8557 13.8572C26.8557 16.9253 24.3589 19.4173 21.2955 19.4173ZM21.2955 9.73745C19.0244 9.73745 17.1758 11.586 17.1758 13.8572C17.1758 16.1283 19.0244 17.9769 21.2955 17.9769C23.5666 17.9769 25.4152 16.1283 25.4152 13.8572C25.4152 11.586 23.5666 9.73745 21.2955 9.73745Z" fill="#A0B8FF"/>
</svg>
